<svg xmlns="http://www.w3.org/2000/svg" viewBox="0 0 400 300" width="400" height="300">
  <defs>
    <linearGradient id="bg1" x1="0%" y1="0%" x2="100%" y2="100%">
      <stop offset="0%" style="stop-color:#a6c81e"/>
      <stop offset="100%" style="stop-color:#6a9e0a"/>
    </linearGradient>
  </defs>
  <rect width="400" height="300" rx="20" fill="url(#bg1)"/>
  <circle cx="200" cy="150" r="80" fill="rgba(255,255,255,0.1)"/>
  <circle cx="200" cy="150" r="55" fill="rgba(255,255,255,0.15)"/>
  <circle cx="200" cy="150" r="30" fill="rgba(255,255,255,0.2)"/>
  <!-- DNA Helix -->
  <path d="M170 80 Q220 110 200 150 Q180 190 220 220" stroke="white" stroke-width="4" fill="none" opacity="0.9"/>
  <path d="M230 80 Q180 110 200 150 Q220 190 180 220" stroke="white" stroke-width="4" fill="none" opacity="0.9"/>
  <line x1="175" y1="95" x2="225" y2="95" stroke="white" stroke-width="2" opacity="0.7"/>
  <line x1="168" y1="120" x2="232" y2="120" stroke="white" stroke-width="2" opacity="0.7"/>
  <line x1="175" y1="145" x2="225" y2="145" stroke="white" stroke-width="2" opacity="0.7"/>
  <line x1="185" y1="170" x2="215" y2="170" stroke="white" stroke-width="2" opacity="0.7"/>
  <line x1="175" y1="195" x2="225" y2="195" stroke="white" stroke-width="2" opacity="0.7"/>
  <!-- A, T, G, C labels -->
  <text x="200" y="240" text-anchor="middle" fill="white" font-size="28" font-weight="bold" opacity="0.9">SANGER</text>
  <text x="200" y="265" text-anchor="middle" fill="rgba(255,255,255,0.7)" font-size="12" letter-spacing="4">测序服务</text>
</svg>
