<svg xmlns="http://www.w3.org/2000/svg" viewBox="0 0 794 1123" width="794" height="1123">
  <defs>
    <linearGradient id="cover-bg" x1="0%" y1="0%" x2="100%" y2="100%">
      <stop offset="0%" stop-color="#1B263B"/>
      <stop offset="40%" stop-color="#2d4a1e"/>
      <stop offset="70%" stop-color="#4a7a1a"/>
      <stop offset="100%" stop-color="#a6c81e"/>
    </linearGradient>
    <pattern id="dot-pattern" x="0" y="0" width="60" height="60" patternUnits="userSpaceOnUse">
      <circle cx="30" cy="30" r="4" fill="white" opacity="0.04"/>
    </pattern>
    <filter id="shadow" x="-20%" y="-20%" width="140%" height="140%">
      <feDropShadow dx="0" dy="8" stdDeviation="15" flood-color="#000" flood-opacity="0.3"/>
    </filter>
  </defs>
  
  <!-- Background -->
  <rect width="794" height="1123" rx="0" fill="url(#cover-bg)"/>
  <rect width="794" height="1123" fill="url(#dot-pattern)"/>
  
  <!-- Decorative circles -->
  <circle cx="700" cy="300" r="250" fill="rgba(255,255,255,0.04)"/>
  <circle cx="700" cy="300" r="180" fill="rgba(255,255,255,0.03)"/>
  <circle cx="700" cy="300" r="120" fill="rgba(255,255,255,0.05)"/>
  
  <!-- DNA decoration -->
  <path d="M620 150 Q700 200 660 300 Q620 400 700 500 Q780 600 700 700" stroke="rgba(255,255,255,0.08)" stroke-width="4" fill="none"/>
  <path d="M700 150 Q620 200 660 300 Q700 400 640 500 Q580 600 660 700" stroke="rgba(255,255,255,0.08)" stroke-width="4" fill="none"/>
  <line x1="610" y1="200" x2="710" y2="200" stroke="rgba(255,255,255,0.06)" stroke-width="2"/>
  <line x1="590" y1="260" x2="730" y2="260" stroke="rgba(255,255,255,0.06)" stroke-width="2"/>
  <line x1="600" y1="320" x2="720" y2="320" stroke="rgba(255,255,255,0.06)" stroke-width="2"/>
  <line x1="615" y1="380" x2="705" y2="380" stroke="rgba(255,255,255,0.06)" stroke-width="2"/>
  <line x1="600" y1="440" x2="720" y2="440" stroke="rgba(255,255,255,0.06)" stroke-width="2"/>
  <line x1="590" y1="500" x2="730" y2="500" stroke="rgba(255,255,255,0.06)" stroke-width="2"/>
  <line x1="610" y1="560" x2="710" y2="560" stroke="rgba(255,255,255,0.06)" stroke-width="2"/>
  
  <!-- Logo area -->
  <rect x="70" y="60" width="70" height="70" rx="14" fill="rgba(255,255,255,0.1)" stroke="rgba(255,255,255,0.15)" stroke-width="1"/>
  <text x="105" y="108" text-anchor="middle" fill="white" font-size="36" font-weight="900" font-family="Arial">E</text>
  
  <text x="155" y="88" fill="white" font-size="26" font-weight="900" letter-spacing="2">恩博康生物</text>
  <text x="155" y="112" fill="rgba(255,255,255,0.6)" font-size="12" letter-spacing="5" text-transform="uppercase">ENBOKANG BIO TECHNOLOGY</text>
  
  <!-- Divider -->
  <rect x="70" y="155" width="60" height="3" rx="1.5" fill="#a6c81e"/>
  
  <!-- Main title -->
  <text x="70" y="230" fill="white" font-size="60" font-weight="900" font-family="Arial">一代测序</text>
  <text x="70" y="300" fill="#a6c81e" font-size="60" font-weight="900" font-family="Arial">实验解决方案</text>
  <text x="70" y="360" fill="white" font-size="60" font-weight="900" font-family="Arial">专家</text>
  
  <!-- Subtitle -->
  <text x="70" y="410" fill="rgba(255,255,255,0.65)" font-size="16" font-weight="300">专注Sanger测序、引物合成、生物信息学分析、试剂耗材一站式服务</text>
  <text x="70" y="438" fill="rgba(255,255,255,0.65)" font-size="16" font-weight="300">覆盖高校、科研院所、医院、企业，帮您把实验做通</text>
  
  <!-- Service cards -->
  <rect x="70" y="470" width="295" height="90" rx="12" fill="rgba(255,255,255,0.07)" stroke="rgba(255,255,255,0.1)" stroke-width="1"/>
  <text x="90" y="500" fill="#a6c81e" font-size="14" font-weight="700">一代测序（Sanger）</text>
  <text x="90" y="522" fill="rgba(255,255,255,0.6)" font-size="11">毛细管电泳金标准测序，准确率99.99%</text>
  <text x="90" y="542" fill="rgba(255,255,255,0.6)" font-size="11">最快24小时交付，测序成功率>99%</text>
  
  <rect x="385" y="470" width="295" height="90" rx="12" fill="rgba(255,255,255,0.07)" stroke="rgba(255,255,255,0.1)" stroke-width="1"/>
  <text x="405" y="500" fill="#a6c81e" font-size="14" font-weight="700">引物合成</text>
  <text x="405" y="522" fill="rgba(255,255,255,0.6)" font-size="11">常规引物、修饰引物、探针合成</text>
  <text x="405" y="542" fill="rgba(255,255,255,0.6)" font-size="11">24h内发货，严格QC质控</text>
  
  <rect x="70" y="575" width="295" height="90" rx="12" fill="rgba(255,255,255,0.07)" stroke="rgba(255,255,255,0.1)" stroke-width="1"/>
  <text x="90" y="605" fill="#a6c81e" font-size="14" font-weight="700">生物信息学分析</text>
  <text x="90" y="627" fill="rgba(255,255,255,0.6)" font-size="11">个性化小规模生信服务</text>
  <text x="90" y="647" fill="rgba(255,255,255,0.6)" font-size="11">GWAS、转录组、多组学联合，8大模块</text>
  
  <rect x="385" y="575" width="295" height="90" rx="12" fill="rgba(255,255,255,0.07)" stroke="rgba(255,255,255,0.1)" stroke-width="1"/>
  <text x="405" y="605" fill="#a6c81e" font-size="14" font-weight="700">试剂耗材</text>
  <text x="405" y="627" fill="rgba(255,255,255,0.6)" font-size="11">PCR、提取纯化、克隆构建等全流程</text>
  <text x="405" y="647" fill="rgba(255,255,255,0.6)" font-size="11">一站式采购，省心更优惠</text>
  
  <!-- Core advantages -->
  <text x="70" y="700" fill="rgba(255,255,255,0.4)" font-size="10" letter-spacing="3" text-transform="uppercase">核心优势</text>
  
  <circle cx="80" cy="728" r="5" fill="#a6c81e"/>
  <text x="95" y="732" fill="rgba(255,255,255,0.75)" font-size="13">农业科研深度聚焦</text>
  
  <circle cx="250" cy="728" r="5" fill="#a6c81e"/>
  <text x="265" y="732" fill="rgba(255,255,255,0.75)" font-size="13">一对一技术支持</text>
  
  <circle cx="420" cy="728" r="5" fill="#a6c81e"/>
  <text x="435" y="732" fill="rgba(255,255,255,0.75)" font-size="13">全程科辅无忧</text>
  
  <circle cx="570" cy="728" r="5" fill="#a6c81e"/>
  <text x="585" y="732" fill="rgba(255,255,255,0.75)" font-size="13">快速交付</text>
  
  <!-- Bottom bar -->
  <rect x="0" y="980" width="794" height="143" fill="rgba(0,0,0,0.2)"/>
  <line x1="0" y1="980" x2="794" y2="980" stroke="rgba(255,255,255,0.1)" stroke-width="1"/>
  
  <!-- QR placeholder -->
  <rect x="70" y="1005" width="70" height="70" rx="10" fill="rgba(255,255,255,0.1)" stroke="rgba(255,255,255,0.2)" stroke-width="1"/>
  <text x="105" y="1045" text-anchor="middle" fill="rgba(255,255,255,0.3)" font-size="28">□</text>
  <text x="105" y="1095" text-anchor="middle" fill="rgba(255,255,255,0.5)" font-size="10">扫码咨询</text>
  
  <!-- Contact info -->
  <text x="160" y="1028" fill="rgba(255,255,255,0.85)" font-size="13">
    <tspan fill="#a6c81e">☎</tspan> 13683326312
    <tspan dx="20" fill="rgba(255,255,255,0.85)">|</tspan>
    <tspan dx="20" fill="#a6c81e">✉</tspan> service@enbokang.com
    <tspan dx="20" fill="rgba(255,255,255,0.85)">|</tspan>
    <tspan dx="20" fill="#a6c81e">⏰</tspan> 周一至周六 8:30-17:30
  </text>
  
  <!-- Company name -->
  <text x="160" y="1060" fill="rgba(255,255,255,0.5)" font-size="11">恩博康（北京）生物科技有限公司</text>
  
  <!-- Copyright -->
  <text x="70" y="1110" fill="rgba(255,255,255,0.35)" font-size="10">© 2026 ENBOKANG BIO All Rights Reserved</text>
</svg>
