<?xml version="1.0" encoding="UTF-8"?>
<svg xmlns="http://www.w3.org/2000/svg" xmlns:xlink="http://www.w3.org/1999/xlink" 
     viewBox="0 0 794 1123" width="794" height="1123">
  <defs>
    <linearGradient id="frontBg" x1="0%" y1="0%" x2="100%" y2="100%">
      <stop offset="0%" stop-color="#1B263B"/>
      <stop offset="35%" stop-color="#2d4a1e"/>
      <stop offset="60%" stop-color="#4a7a1a"/>
      <stop offset="100%" stop-color="#a6c81e"/>
    </linearGradient>
    <pattern id="dots" x="0" y="0" width="80" height="80" patternUnits="userSpaceOnUse">
      <circle cx="40" cy="40" r="5" fill="white" opacity="0.03"/>
    </pattern>
    <linearGradient id="greenGrad" x1="0%" y1="0%" x2="100%" y2="0%">
      <stop offset="0%" stop-color="#a6c81e"/>
      <stop offset="50%" stop-color="#8bc926"/>
      <stop offset="100%" stop-color="#6a9e0a"/>
    </linearGradient>
    <style>
      @import url('https://fonts.googleapis.com/css2?family=Noto+Sans+SC:wght@300;400;500;700;900&amp;display=swap');
      text { font-family: 'Noto Sans SC', 'PingFang SC', 'Microsoft YaHei', sans-serif; }
    </style>
  </defs>

  <!-- ===== 正面 ===== -->
  <!-- 背景 -->
  <rect width="794" height="1123" fill="url(#frontBg)"/>
  <rect width="794" height="1123" fill="url(#dots)"/>

  <!-- DNA装饰 -->
  <g opacity="0.06">
    <path d="M650 100 Q720 200 660 350 Q600 500 660 700 Q720 850 650 1000" stroke="white" stroke-width="3" fill="none"/>
    <path d="M720 100 Q650 200 700 350 Q750 500 700 700 Q650 850 710 1000" stroke="white" stroke-width="3" fill="none"/>
    <line x1="630" y1="200" x2="740" y2="200" stroke="white" stroke-width="1.5"/>
    <line x1="610" y1="300" x2="760" y2="300" stroke="white" stroke-width="1.5"/>
    <line x1="620" y1="400" x2="750" y2="400" stroke="white" stroke-width="1.5"/>
    <line x1="630" y1="500" x2="740" y2="500" stroke="white" stroke-width="1.5"/>
    <line x1="610" y1="600" x2="760" y2="600" stroke="white" stroke-width="1.5"/>
    <line x1="620" y1="700" x2="750" y2="700" stroke="white" stroke-width="1.5"/>
    <line x1="630" y1="800" x2="740" y2="800" stroke="white" stroke-width="1.5"/>
    <line x1="610" y1="900" x2="760" y2="900" stroke="white" stroke-width="1.5"/>
  </g>

  <!-- Logo区域 -->
  <image href="assets/logo.svg" x="640" y="50" width="110" height="110"/>

  <!-- 公司名称 -->
  <text x="55" y="85" fill="white" font-size="22" font-weight="900" letter-spacing="1">恩博康（北京）生物科技有限公司</text>
  <text x="55" y="105" fill="rgba(255,255,255,0.5)" font-size="10" letter-spacing="4" text-transform="uppercase">ENBOKANG BIO TECHNOLOGY</text>

  <!-- 分割线 -->
  <rect x="55" y="115" width="55" height="3" rx="1.5" fill="#a6c81e"/>

  <!-- 主标题 -->
  <text x="55" y="175" fill="white" font-size="56" font-weight="900">一代测序</text>
  <text x="55" y="240" fill="#a6c81e" font-size="56" font-weight="900">实验解决方案</text>
  <text x="55" y="300" fill="white" font-size="56" font-weight="900">专家</text>

  <!-- 副标题 -->
  <text x="55" y="335" fill="rgba(255,255,255,0.65)" font-size="14" font-weight="300">专注Sanger测序、引物合成、生物信息学分析、试剂耗材一站式服务</text>
  <text x="55" y="355" fill="rgba(255,255,255,0.65)" font-size="14" font-weight="300">覆盖高校、科研院所、医院、企业，帮您把实验做通</text>

  <!-- 四大服务卡片 -->
  <!-- 卡片1 -->
  <rect x="55" y="375" width="335" height="82" rx="10" fill="rgba(255,255,255,0.07)" stroke="rgba(255,255,255,0.1)" stroke-width="1"/>
  <circle cx="82" cy="400" r="14" fill="#a6c81e"/>
  <text x="82" y="405" text-anchor="middle" fill="white" font-size="12" font-weight="900">DNA</text>
  <text x="105" y="395" fill="#a6c81e" font-size="13" font-weight="700">一代测序（Sanger）</text>
  <text x="105" y="412" fill="rgba(255,255,255,0.6)" font-size="10">毛细管电泳金标准测序，准确率99.99%，最快24h交付</text>
  <text x="105" y="427" fill="rgba(255,255,255,0.6)" font-size="10">测序成功率>99%</text>

  <!-- 卡片2 -->
  <rect x="400" y="375" width="335" height="82" rx="10" fill="rgba(255,255,255,0.07)" stroke="rgba(255,255,255,0.1)" stroke-width="1"/>
  <circle cx="427" cy="400" r="14" fill="#0096C7"/>
  <text x="427" y="405" text-anchor="middle" fill="white" font-size="11" font-weight="900">P</text>
  <text x="450" y="395" fill="#a6c81e" font-size="13" font-weight="700">引物合成</text>
  <text x="450" y="412" fill="rgba(255,255,255,0.6)" font-size="10">常规引物、修饰引物、探针合成</text>
  <text x="450" y="427" fill="rgba(255,255,255,0.6)" font-size="10">24h内发货，严格QC质控</text>

  <!-- 卡片3 -->
  <rect x="55" y="465" width="335" height="82" rx="10" fill="rgba(255,255,255,0.07)" stroke="rgba(255,255,255,0.1)" stroke-width="1"/>
  <circle cx="82" cy="490" r="14" fill="#5C6BC0"/>
  <text x="82" y="495" text-anchor="middle" fill="white" font-size="11" font-weight="900">BIO</text>
  <text x="105" y="485" fill="#a6c81e" font-size="13" font-weight="700">生物信息学分析</text>
  <text x="105" y="502" fill="rgba(255,255,255,0.6)" font-size="10">个性化小规模生信服务</text>
  <text x="105" y="517" fill="rgba(255,255,255,0.6)" font-size="10">GWAS、转录组、多组学联合分析，8大模块</text>

  <!-- 卡片4 -->
  <rect x="400" y="465" width="335" height="82" rx="10" fill="rgba(255,255,255,0.07)" stroke="rgba(255,255,255,0.1)" stroke-width="1"/>
  <circle cx="427" cy="490" r="14" fill="#FFA62B"/>
  <text x="427" y="495" text-anchor="middle" fill="white" font-size="11" font-weight="900">F</text>
  <text x="450" y="485" fill="#a6c81e" font-size="13" font-weight="700">试剂耗材</text>
  <text x="450" y="502" fill="rgba(255,255,255,0.6)" font-size="10">PCR、提取纯化、克隆构建等全流程试剂耗材</text>
  <text x="450" y="517" fill="rgba(255,255,255,0.6)" font-size="10">一站式采购</text>

  <!-- 核心优势 -->
  <text x="55" y="570" fill="rgba(255,255,255,0.4)" font-size="9" letter-spacing="3">核心优势</text>
  <rect x="55" y="585" width="120" height="26" rx="13" fill="rgba(255,255,255,0.06)" stroke="rgba(255,255,255,0.08)" stroke-width="1"/>
  <circle cx="67" cy="598" r="4" fill="#a6c81e"/>
  <text x="76" y="602" fill="rgba(255,255,255,0.75)" font-size="11">农业科研深度聚焦</text>
  <rect x="183" y="585" width="120" height="26" rx="13" fill="rgba(255,255,255,0.06)" stroke="rgba(255,255,255,0.08)" stroke-width="1"/>
  <circle cx="195" cy="598" r="4" fill="#a6c81e"/>
  <text x="204" y="602" fill="rgba(255,255,255,0.75)" font-size="11">一对一技术支持</text>
  <rect x="311" y="585" width="110" height="26" rx="13" fill="rgba(255,255,255,0.06)" stroke="rgba(255,255,255,0.08)" stroke-width="1"/>
  <circle cx="323" cy="598" r="4" fill="#a6c81e"/>
  <text x="332" y="602" fill="rgba(255,255,255,0.75)" font-size="11">全程科辅无忧</text>
  <rect x="55" y="618" width="100" height="26" rx="13" fill="rgba(255,255,255,0.06)" stroke="rgba(255,255,255,0.08)" stroke-width="1"/>
  <circle cx="67" cy="631" r="4" fill="#a6c81e"/>
  <text x="76" y="635" fill="rgba(255,255,255,0.75)" font-size="11">快速交付可靠</text>
  <rect x="163" y="618" width="110" height="26" rx="13" fill="rgba(255,255,255,0.06)" stroke="rgba(255,255,255,0.08)" stroke-width="1"/>
  <circle cx="175" cy="631" r="4" fill="#a6c81e"/>
  <text x="184" y="635" fill="rgba(255,255,255,0.75)" font-size="11">一站式实验方案</text>

  <!-- 统计数据 -->
  <rect x="55" y="658" width="680" height="70" rx="10" fill="rgba(0,0,0,0.2)"/>
  <text x="135" y="685" text-anchor="middle" fill="white" font-size="24" font-weight="900">5000<tspan font-size="16">+</tspan></text>
  <text x="135" y="705" text-anchor="middle" fill="rgba(255,255,255,0.6)" font-size="9">累计服务客户</text>
  <line x1="260" y1="672" x2="260" y2="716" stroke="rgba(255,255,255,0.1)" stroke-width="1"/>
  <text x="395" y="685" text-anchor="middle" fill="white" font-size="24" font-weight="900">10<tspan font-size="16">万+</tspan></text>
  <text x="395" y="705" text-anchor="middle" fill="rgba(255,255,255,0.6)" font-size="9">测序反应完成</text>
  <line x1="530" y1="672" x2="530" y2="716" stroke="rgba(255,255,255,0.1)" stroke-width="1"/>
  <text x="570" y="685" text-anchor="middle" fill="white" font-size="24" font-weight="900">99<tspan font-size="16">%</tspan></text>
  <text x="570" y="705" text-anchor="middle" fill="rgba(255,255,255,0.6)" font-size="9">测序成功率</text>
  <line x1="610" y1="672" x2="610" y2="716" stroke="rgba(255,255,255,0.1)" stroke-width="1"/>
  <text x="658" y="685" text-anchor="middle" fill="white" font-size="24" font-weight="900">50<tspan font-size="16">+</tspan></text>
  <text x="658" y="705" text-anchor="middle" fill="rgba(255,255,255,0.6)" font-size="9">合作高校机构</text>

  <!-- 活动区域 -->
  <rect x="55" y="740" width="680" height="135" rx="10" fill="url(#greenGrad)"/>
  <rect x="70" y="755" width="65" height="22" rx="11" fill="rgba(255,255,255,0.25)" stroke="rgba(255,255,255,0.4)" stroke-width="1"/>
  <text x="102" y="770" text-anchor="middle" fill="white" font-size="10" font-weight="700" letter-spacing="1">限时活动</text>
  <text x="145" y="770" fill="white" font-size="13" font-weight="700">新客户首单即送优盘 / 计时器 / 刮刮卡，三选一</text>

  <!-- 活动档位 -->
  <rect x="70" y="785" width="320" height="38" rx="6" fill="rgba(0,0,0,0.15)"/>
  <text x="85" y="800" fill="white" font-size="11" font-weight="900">满</text>
  <text x="100" y="800" fill="white" font-size="11" font-weight="700">59</text>
  <text x="118" y="800" fill="rgba(255,255,255,0.8)" font-size="10">个反应</text>
  <text x="85" y="815" fill="rgba(255,255,255,0.9)" font-size="9">送价值50元京东购物卡或同等价值小礼品</text>

  <rect x="400" y="785" width="320" height="38" rx="6" fill="rgba(0,0,0,0.15)"/>
  <text x="415" y="800" fill="white" font-size="11" font-weight="900">满</text>
  <text x="430" y="800" fill="white" font-size="11" font-weight="700">159</text>
  <text x="463" y="800" fill="rgba(255,255,255,0.8)" font-size="10">个反应</text>
  <text x="415" y="815" fill="rgba(255,255,255,0.9)" font-size="9">送价值150元购物卡、骨传导蓝牙耳机或同等礼品</text>

  <rect x="70" y="830" width="320" height="38" rx="6" fill="rgba(0,0,0,0.15)"/>
  <text x="85" y="845" fill="white" font-size="11" font-weight="900">满</text>
  <text x="100" y="845" fill="white" font-size="11" font-weight="700">599</text>
  <text x="133" y="845" fill="rgba(255,255,255,0.8)" font-size="10">个反应</text>
  <text x="85" y="860" fill="rgba(255,255,255,0.9)" font-size="9">送AI空气鼠标或同等价值小礼品</text>

  <rect x="400" y="830" width="320" height="38" rx="6" fill="rgba(0,0,0,0.15)"/>
  <text x="415" y="845" fill="white" font-size="11" font-weight="900">满</text>
  <text x="430" y="845" fill="white" font-size="11" font-weight="700">1299</text>
  <text x="475" y="845" fill="rgba(255,255,255,0.8)" font-size="10">个反应</text>
  <text x="415" y="860" fill="rgba(255,255,255,0.9)" font-size="9">送新款电动车 / 华为手机一部或同等价值礼品</text>

  <!-- 底部联系条 -->
  <rect x="0" y="890" width="794" height="68" fill="rgba(0,0,0,0.25)"/>
  <line x1="0" y1="890" x2="794" y2="890" stroke="rgba(255,255,255,0.08)" stroke-width="1"/>
  <text x="55" y="913" fill="rgba(255,255,255,0.8)" font-size="10">☎ 13683326312</text>
  <text x="220" y="913" fill="rgba(255,255,255,0.4)" font-size="10">|</text>
  <text x="240" y="913" fill="rgba(255,255,255,0.8)" font-size="10">✉ service@enbokang.com</text>
  <text x="440" y="913" fill="rgba(255,255,255,0.4)" font-size="10">|</text>
  <text x="460" y="913" fill="rgba(255,255,255,0.8)" font-size="10">⏰ 周一至周六 8:30-17:30</text>
  <!-- 二维码 -->
  <rect x="650" y="896" width="70" height="55" rx="6" fill="rgba(255,255,255,0.08)" stroke="rgba(255,255,255,0.15)" stroke-width="1"/>
  <image href="WeChat.png" x="658" y="904" width="54" height="54"/>
  <text x="685" y="966" text-anchor="middle" fill="rgba(255,255,255,0.4)" font-size="9">扫码咨询</text>
</svg>
