<svg id="图层_1" data-name="图层 1" xmlns="http://www.w3.org/2000/svg" viewBox="0 0 566.93 367.92"><defs><style>.cls-1{fill:#a6c81e;}.cls-2{fill:#fff;}.cls-3,.cls-7{fill:#00a1c3;}.cls-3,.cls-4,.cls-5,.cls-8{fill-rule:evenodd;}.cls-4,.cls-6{fill:#0179bc;}.cls-5{fill:#00b389;}.cls-8{fill:#09a787;}</style></defs><rect class="cls-1" width="566.93" height="367.92"/><rect class="cls-2" x="52.89" y="40.61" width="461.15" height="286.7" rx="10.89"/><path class="cls-3" d="M233.72,190.76a1.65,1.65,0,0,0-.22.66,8.07,8.07,0,0,0,.19,1.23,9.9,9.9,0,0,0,.27,1.26,3,3,0,0,0,.34.8c.19.3.46.62.75,1s.75,1.15,1,1.53.45.5.56.79a2.9,2.9,0,0,1,0,.93c0,.29-.3.45,0,.81.54.69,1.42.94,1.85,1.73a5.49,5.49,0,0,0,1.8,1.85c2.82,2.11,5.56,4.3,8.42,6.37s5.73,4,8.38,6.36c4.44,3.85,8.29,8.88,8.94,14.72a48.92,48.92,0,0,1,.08,5.28c0,.65-.22,1.51.15,2.11s1.13.48,1.8.48a16.93,16.93,0,0,0,2.25-.08c.92-.1.79-.82.91-1.66a27.44,27.44,0,0,0,.16-5.8,27.75,27.75,0,0,0-3.29-11.06,31.65,31.65,0,0,0-5.58-6.86,77.09,77.09,0,0,0-8.07-6.79c-3.35-2.49-6.79-4.86-10.07-7.44-1.36-1.07-2.7-2.18-4-3.35-.63-.58-1.21-1.26-1.88-1.8-.23-.18-.48-.15-.72-.29s-.39-.49-.69-.62-.84,0-1.13-.15a1.43,1.43,0,0,1-.6-.54c-.17-.22-.25-.59-.42-.78a2.19,2.19,0,0,0-.58-.39c-.2-.13-.52-.31-.63-.37S233.77,190.64,233.72,190.76Z"/><path class="cls-4" d="M277.74,145.93c1.36,0,3.34,0,5,.06s3.46.06,4.8.1,2.47.13,3.23.19a11,11,0,0,1,1.35.17c.47.08,1,.2,1.51.32s.94.26,1.38.4.88.3,1.27.45l1.09.47a8.92,8.92,0,0,1,.88.48,8.32,8.32,0,0,1,.76.5c.24.18.51.4.7.57a5.92,5.92,0,0,1,.45.41c.36.35.78.66,1.13,1a6.51,6.51,0,0,1,1,1.6,18.09,18.09,0,0,1,1.45,3.67,16.78,16.78,0,0,1,.29,7.81,14.88,14.88,0,0,1-8.32,10.52c-3.34,1.47-7.1,1.53-10.75,1.56-2.39,0-4.78.05-7.17.07l-1.77,0a7.47,7.47,0,0,0-1.77,0c-1,.26-.72,1.14-.55,1.89.27,1.14.54,2.27.71,3.43a19.24,19.24,0,0,1,0,5.72c-.13.82-1.31,3.55.21,3.68s2.78.06,4.16.09l8.22.18c3.93.08,7.94.18,11.68,1.41a15.29,15.29,0,0,1,6.56,4.07,15.86,15.86,0,0,1,3.56,7.45,16.37,16.37,0,0,1,0,6.43,15.13,15.13,0,0,1-1.55,4.26,16,16,0,0,1-7.53,6.89,22.79,22.79,0,0,1-7.21,1.54,120.1,120.1,0,0,1-13.68.59c-1.43,0-2.85-.09-4.28-.13-1.18,0-1.12,1-.94,1.9s.33,1.65.45,2.48a38.17,38.17,0,0,1,.41,5c0,1,0,2-.07,3.06,0,.77-.2,2.23.85,2.4a21.51,21.51,0,0,0,3.11.06c4,0,8,.08,12-.09a52.51,52.51,0,0,0,6-.58c7-1,13.82-3.44,19.33-7.8a27.94,27.94,0,0,0,7.5-9.09,23.31,23.31,0,0,0,2.05-5.67,37.6,37.6,0,0,0,1-5.84A26.27,26.27,0,0,0,317,188.13a27.18,27.18,0,0,0-4.92-3.38,29.12,29.12,0,0,0-2.72-1.25c-.61-.24-2.21-.57-2.33-1.39s1.68-1.64,2.24-2a27.88,27.88,0,0,0,7.74-7.37,24.45,24.45,0,0,0,3.5-8,26.19,26.19,0,0,0,.64-4.41c.08-1.25-.18-2.38-.17-3.61a22.6,22.6,0,0,0-6.15-15.26c-.35-.37-.7-.73-1.07-1.08-4.77-4.57-11.14-7.23-17.64-8.42a59.85,59.85,0,0,0-11-.89h-2.55l-2.58,0c-.85,0-1.7,0-2.56.08l-1.3.05-.65,0c-.22,0-.44,0-.65,0s-.42.07-.5.24a1.82,1.82,0,0,0-.05.58c0,.27,0,.63.07,1a30.65,30.65,0,0,1,0,6.28,24.44,24.44,0,0,1-.6,3.16,12.14,12.14,0,0,0-.75,2.63.71.71,0,0,0,.06.26.31.31,0,0,0,.1.13c.06.05,0,.12.27.18a6.77,6.77,0,0,0,1.19.14"/><path class="cls-3" d="M230.67,131a2.35,2.35,0,0,0-.52,1.37,23.54,23.54,0,0,0,.36,9.6,29.42,29.42,0,0,0,7.41,12.89,49,49,0,0,0,6.53,5.67c2.54,1.85,5.23,3.47,7.79,5.29a54.25,54.25,0,0,1,11.45,10.46c.62.77,1.7,2,2.22,2.8.17.27.15.54.53.57s.5-.45.84-.62,1-.2,1.22-.33.29-.32.38-.47a1.38,1.38,0,0,0,.18-.46,5.3,5.3,0,0,1,.38-1c.71-1.41-2.07-4.78-3.62-6.68a41,41,0,0,0-6.24-6c-3.8-3-7.94-5.61-11.82-8.56s-7.53-6.31-10-10.53a20.58,20.58,0,0,1-2.56-7.11,16.88,16.88,0,0,1-.16-3.76,13.18,13.18,0,0,1,.25-1.86c.06-.32.44-.94.27-1.27s-1-.38-1.36-.4a8.94,8.94,0,0,0-3.14.18A1.22,1.22,0,0,0,230.67,131Z"/><path class="cls-5" d="M244.61,209.08a2.59,2.59,0,0,0-1,.44c-.65.42-1.29.86-1.91,1.32a29.85,29.85,0,0,0-3.48,3.07A29,29,0,0,0,230,233.27a28.73,28.73,0,0,0,.06,3.08c.07,1-.16,2.07,1,2.33a8,8,0,0,0,3.47,0c1.24-.26.74-1,.64-2a21.17,21.17,0,0,1-.12-2.75,22,22,0,0,1,2.8-10.29,29.14,29.14,0,0,1,5.52-6.79c1.09-1,2.23-2,3.39-2.94.75-.61,2.19-1.28,1.45-2.4a6.52,6.52,0,0,0-2.22-1.92A2.18,2.18,0,0,0,244.61,209.08Z"/><path class="cls-5" d="M268.57,177.4h0c-.44-.4-4.94-1.11-4.88-1.08a12.93,12.93,0,0,1,2,9.92,19.43,19.43,0,0,1-4.79,9.14,36.14,36.14,0,0,1-4.67,4.33c-1.06.85-4,2.09-3,3.78a3.22,3.22,0,0,0,.83.76c.29.24.59.42.95.7s.88.76,1.21,1c1.27.77,3-1.32,3.8-2,1.3-1.16,2.58-2.35,3.79-3.62a28,28,0,0,0,5.79-8.5,20.39,20.39,0,0,0,1.48-8.42,20.77,20.77,0,0,0-.64-4.43,15.07,15.07,0,0,0-1.11-3.65"/><path class="cls-5" d="M240.58,195.84c-.32-.48-2.19-2.49-2.53-3a14.17,14.17,0,0,1-1-1.62,14,14,0,0,1-1.32-3.54,14.31,14.31,0,0,1-.23-4.84,13.67,13.67,0,0,1,1.35-4.26,21.51,21.51,0,0,1,3.54-5.11,45,45,0,0,1,4.69-4.37,28.55,28.55,0,0,1,2.34-1.8,1.79,1.79,0,0,0,.55-2.4,3.14,3.14,0,0,0-.89-.85,8.09,8.09,0,0,0-1.21-.7,3.15,3.15,0,0,0-1.18-.42h-.08a5,5,0,0,0-2.31,1.42,76.44,76.44,0,0,0-6.21,5.87,29.11,29.11,0,0,0-2.76,3.6,18.78,18.78,0,0,0-2,3.93,21.59,21.59,0,0,0-1,9.27,20.57,20.57,0,0,0,.56,3,21.43,21.43,0,0,0,3.68,7.46,20.89,20.89,0,0,0,2.29,2.6c.39.36,1,1,1,1s.79.78,1.1,1.11l2.51-.44"/><path class="cls-5" d="M270.35,130.66l-2.76,0a5.63,5.63,0,0,0-1.23,0c-.28.07-.29.2-.28.49,0,1.72.22,3.5.09,5.22a21.87,21.87,0,0,1-.36,2.54,10.63,10.63,0,0,1-.67,2.47,22.19,22.19,0,0,1-1.93,4.24,29.79,29.79,0,0,1-7.69,8.48c-.4.31-.8.6-1.21.89a11.58,11.58,0,0,0-1.2.83c-.7.66.22,1.55.69,2,.3.31.73.68,1,.93s.52.43.73.58a3.23,3.23,0,0,0,.55.32,1.67,1.67,0,0,0,.66.24,1.33,1.33,0,0,0,1-.18c.36-.26.69-.63,1-.93.75-.66,1.48-1.33,2.2-2a47.85,47.85,0,0,0,4-4.38c2.44-3,4.75-6.64,5.64-10.46a30.38,30.38,0,0,0,.73-5,45.64,45.64,0,0,0,0-4.68c0-.61-.08-1.55-.88-1.55Z"/><path class="cls-5" d="M251.81,122.34q3-1.41,6-2.76,6-2.72,12.13-5.23t12.3-4.81c8-3,16-5.51,24.11-8a222.52,222.52,0,0,1,66.47-10.11,109.27,109.27,0,0,1,18.52,1.35,61.63,61.63,0,0,1,9,2.21,58,58,0,0,1,8,3.53,33.15,33.15,0,0,1,15.92,17.69,34.1,34.1,0,0,1,1.32,4.28c.13.56,1,3.84,1,3.84s.63-1.38.74-1.66A9.53,9.53,0,0,0,428,120a32.08,32.08,0,0,0,.1-5.88,32.81,32.81,0,0,0-3-11.34,35.41,35.41,0,0,0-12.71-14.72,54.07,54.07,0,0,0-16.75-7.39l-.91-.22c-10-2.31-20.36-2.15-30.56-1.28A227.59,227.59,0,0,0,274,106.62q-7.32,4-14.33,8.6c-2.27,1.48-4.45,3.07-6.64,4.66-1.88,1.36-2.84,2.11-4.7,3.49l-1.49,1.11"/><path class="cls-6" d="M141.43,237.86V131.2h77.12v12.59h-63v32.67h59V189h-59v36.3H221v12.59Z"/><path class="cls-6" d="M339.32,237.86V131.2h14.12v52.9l53-52.9h19.14l-44.75,43.22,46.71,63.44H408.87l-38-54-17.46,17v37Z"/><polyline class="cls-3" points="246.63 172.64 250.52 168.75 254.21 172.72"/><path class="cls-4" d="M251,150.63v.31h-4.56l-1.36-2.53a.82.82,0,0,1,.72-1.2h5.3Z"/><path class="cls-5" d="M255.08,150.94H251v-.34l.1-3.39H256a.82.82,0,0,1,.69,1.26Z"/><polyline class="cls-5" points="241.28 139.75 260.6 139.75 258.49 143.81 258.18 143.81 243.26 143.81"/><path class="cls-5" d="M237.79,131.8h26.3c-.56,1.36-1.13,2.71-1.7,4.07H239.51"/><rect class="cls-7" x="241.08" y="175.25" width="18.67" height="3.95"/><rect class="cls-7" x="238.76" y="182.72" width="23.31" height="3.95"/><rect class="cls-7" x="241.08" y="190.2" width="18.67" height="3.95"/><polyline class="cls-8" points="246.63 196.76 250.52 200.64 254.21 196.67"/><path class="cls-3" d="M250.62,217.93v-.31h-4.57l-1.36,2.53a.81.81,0,0,0,.72,1.2h5.3Z"/><path class="cls-5" d="M254.71,217.62h-4.1V218l.1,3.39h5a.75.75,0,0,0,.63-1.16Z"/><polyline class="cls-5" points="240.91 228.81 260.23 228.81 258.12 224.75 257.81 224.75 242.89 224.75"/><path class="cls-5" d="M237.41,236.76h26.31l-1.7-4.07H239.14"/><path class="cls-3" d="M315.52,247.44q-3,1.41-6,2.76-6,2.72-12.13,5.23t-12.29,4.81c-8,3-16,5.52-24.11,8.05a223.06,223.06,0,0,1-25.48,6.32,221.11,221.11,0,0,1-41,3.78A109.34,109.34,0,0,1,176,277.05a63,63,0,0,1-9-2.22,57.38,57.38,0,0,1-8-3.53,33,33,0,0,1-15.92-17.69,34.15,34.15,0,0,1-1.33-4.28c-.13-.56-1-3.84-1-3.84s-.62,1.38-.73,1.67a9.38,9.38,0,0,0-.69,2.62,32.09,32.09,0,0,0-.09,5.88A32.91,32.91,0,0,0,142.16,267a35.47,35.47,0,0,0,12.71,14.72,54.59,54.59,0,0,0,16.76,7.39l.91.21c10,2.31,20.36,2.15,30.56,1.28a227.68,227.68,0,0,0,90.27-27.45q7.32-4,14.33-8.6c2.26-1.47,4.45-3.07,6.63-4.65,1.88-1.36,2.85-2.12,4.71-3.5l1.48-1.11"/></svg>